<svg width="35" height="35" viewBox="0 0 35 35" fill="none" xmlns="http://www.w3.org/2000/svg">
<circle cx="18" cy="18" r="17" fill="#EEEEEE"/>
<path fill-rule="evenodd" clip-rule="evenodd" d="M18.8887 11.7778C18.8887 11.2869 18.4907 10.8889 17.9998 10.8889C17.5089 10.8889 17.1109 11.2869 17.1109 11.7778V17.1111H11.7776C11.2866 17.1111 10.8887 17.5091 10.8887 18C10.8887 18.4909 11.2866 18.8889 11.7776 18.8889H17.1109V24.2222C17.1109 24.7131 17.5089 25.1111 17.9998 25.1111C18.4907 25.1111 18.8887 24.7131 18.8887 24.2222V18.8889H24.222C24.7129 18.8889 25.1109 18.4909 25.1109 18C25.1109 17.5091 24.7129 17.1111 24.222 17.1111H18.8887V11.7778Z" fill="#7658E0"/>
</svg>
